<svg data-v-0dd9719b="" version="1.0" xmlns="http://www.w3.org/2000/svg" xmlns:xlink="http://www.w3.org/1999/xlink" width="100%" height="100%" viewBox="0 0 340.000000 250.000000" preserveAspectRatio="xMidYMid meet" color-interpolation-filters="sRGB" style="margin: auto;"> <rect data-v-0dd9719b="" x="0" y="0" width="100%" height="100%" fill="#fff" fill-opacity="1" class="background"></rect> <rect data-v-0dd9719b="" x="0" y="0" width="100%" height="100%" fill="url(#watermark)" fill-opacity="1" class="watermarklayer"></rect> <g data-v-0dd9719b="" fill="#333" class="icon-text-wrapper icon-svg-group iconsvg" transform="translate(47.68500518798828,97.76589393615723)"><g class="iconsvg-imagesvg" transform="translate(0,0)"><g><rect fill="#333" fill-opacity="0" stroke-width="2" x="0" y="0" width="60" height="54.46820872217582" class="image-rect"></rect> <svg x="0" y="0" width="60" height="54.46820872217582" filtersec="colorsb7139731318" class="image-svg-svg primary" style="overflow: visible;"><svg xmlns="http://www.w3.org/2000/svg" viewBox="0 -0.008529752492904663 170.20947265625 154.5167236328125"><path d="M68.21 102.91h52.96a64.63 64.63 0 0 0-1.24 6.61c-.31 1.91-.65 3.82-1 5.73s-.72 3.81-1 5.72c-.48 2.85-.91 5.71-1.4 8.56-.32 1.91-.74 3.8-1.07 5.71-.47 2.78-.87 5.57-1.34 8.35s-1 5.76-1.52 8.65a2.17 2.17 0 0 0 .13 1.69c-.35.65-1 .55-1.54.55H60.44c-.48 0-1 .18-1.4-.37.31-.05.31-.29.35-.54.65-3.82 1.35-7.64 2-11.47.41-2.56.82-5.11 1.31-7.66.43-2.27.76-4.56 1.15-6.85.29-1.71.62-3.41.91-5.12.4-2.29.77-4.57 1.16-6.86.31-1.88.56-3.77 1-5.64.41-2.32.47-4.76 1.29-7.06z" fill="#d451a8"></path><path d="M57.76.25C58-.08 58.3 0 58.6 0h52a1.55 1.55 0 0 1 .31 0 15.19 15.19 0 0 1-.42 2.41c-.76 4.47-1.48 8.94-2.25 13.41s-1.54 8.66-2.29 13-1.46 8.82-2.19 13.22c-.52 3.13-1.2 6.23-1.55 9.39a.28.28 0 0 1-.13 0h-24.2a1.83 1.83 0 0 0-1 .21.19.19 0 0 1-.18 0c-.35-.31-.78-.17-1.18-.18h-25c-.45 0-.89 0-1.33-.06q.81-4.18 1.52-8.4Q52.83 30.51 55 18c.9-5.32 1.86-10.63 2.74-16 .04-.53.43-1.15.02-1.75z" fill="#9af7b9"></path><path d="M76.71 51.66a.19.19 0 0 0 .18 0c-.5 3.07-1 6.15-1.5 9.21l-5.31 31c-.63 3.68-1.24 7.36-1.87 11-.82 2.3-.88 4.74-1.37 7.1-.39 1.87-.64 3.76-1 5.64-.39 2.29-.76 4.57-1.16 6.86-.29 1.71-.62 3.41-.91 5.12-.39 2.29-.72 4.58-1.15 6.85-.49 2.55-.9 5.1-1.31 7.66-.62 3.83-1.32 7.65-2 11.47 0 .25 0 .49-.35.54q-13.18-15.93-26.35-31.87c-4.99-6.09-10.04-12.24-15.14-18.34-.61-.73-.67-1.07.1-1.76 16.94-15 34.38-29.32 51.54-44 2.52-2.14 5.07-4.33 7.6-6.48z" fill="#277ee6"></path><path d="M102.07 51.5a.28.28 0 0 0 .13 0H152c.43 0 .89-.15 1.28.19-2.6 2.32-5.17 4.69-7.82 7q-8.88 7.63-17.82 15.2-9.8 8.3-19.64 16.62l-13.86 11.78c-.18.14-.37.27-.73.52a30.86 30.86 0 0 1 .59-4.26q1.6-9.52 3.26-19c1-5.83 2-11.66 3-17.5.66-3.53 1.23-7.05 1.81-10.55z" fill="#fc9456"></path><path d="M153.3 51.67c-.39-.34-.85-.19-1.28-.19H102.2c.35-3.16 1-6.26 1.55-9.39.73-4.4 1.44-8.81 2.19-13.22s1.55-8.65 2.29-13 1.49-8.94 2.25-13.41a15.19 15.19 0 0 0 .42-2.41 29.62 29.62 0 0 1 3.9 4.47c3.21 3.81 6.36 7.69 9.53 11.54q6.22 7.55 12.46 15.11 6.74 8.13 13.5 16.24l2.87 3.48c.18.23.49.45.14.78z" fill="#fde974"></path><path d="M57.76.25c.41.6 0 1.22-.07 1.77C56.81 7.35 55.85 12.66 55 18q-2.19 12.5-4.29 25-.72 4.2-1.46 8.38H.11L0 51.23z" fill="#277ee6"></path><path d="M112.7 154a2.17 2.17 0 0 1-.13-1.69c.47-2.89 1-5.76 1.52-8.65s.87-5.57 1.34-8.35c.33-1.91.75-3.8 1.07-5.71.49-2.85.92-5.71 1.4-8.56.32-1.91.7-3.81 1-5.72s.68-3.82 1-5.73a64.63 64.63 0 0 1 1.24-6.61H170.15c.18.39-.09.5-.26.65l-46.78 41.3q-4.55 4-9.07 8c-.41.37-1.04.52-1.34 1.07z" fill="#fc9456"></path></svg></svg> <!----></g></g> <g transform="translate(67,0.5578536987304688)"><g data-gra="path-name" fill-rule="" class="tp-name iconsvg-namesvg" transform="translate(0,0)"><g transform="scale(1)"><g><path d="M25.2-15.97L25.2-15.97 25.2-31.18Q25.2-33 27.03-33L27.03-33 41.55-33Q43.4-33 43.4-31.33L43.4-31.33 43.4-31Q43.4-29 42.76-25.97L42.76-25.97 41.53-19.93Q41.48-19.67 41.48-19.49L41.48-19.49Q41.48-18.76 42.39-18.65L42.39-18.65Q43.37-18.52 43.37-17.58L43.37-17.58Q43.37-17.4 43.37-17.34L43.37-17.34 41.62 1.74Q41.46 3.43 39.75 3.43L39.75 3.43 36.52 3.43Q34.8 3.43 34.8 1.93L34.8 1.93Q34.8 1.71 34.83 1.58L34.83 1.58 36.25-14.04Q36.25-14.15 36.25-14.22L36.25-14.22Q36.25-14.9 35.55-14.96L35.55-14.96Q34.78-15.05 34.78-15.73L34.78-15.73 34.78-16.24Q34.78-17.51 35.31-20.17L35.31-20.17 36.54-26.61Q36.61-26.96 36.61-27.22L36.61-27.22Q36.61-27.69 36.3-28.04L36.3-28.04Q35.9-28.52 35.24-28.52L35.24-28.52 35.16-28.52Q33.6-28.52 33.6-26.7L33.6-26.7 33.6 2.66Q33.6 4.5 31.77 4.5L31.77 4.5 27.03 4.5Q25.2 4.5 25.2 2.66L25.2 2.66 25.2-13.45Q24.76-12.61 23.75-12.61L23.75-12.61 23.53-12.61Q22.85-12.61 22.39-12.11L22.39-12.11Q22.04-11.69 22.04-11.14L22.04-11.14Q22.04-10.92 22.08-10.59L22.08-10.59 23.77 2.59Q23.8 2.79 23.8 3.1L23.8 3.1Q23.8 4.46 22.15 4.46L22.15 4.46 18.28 4.46Q16.59 4.46 16.39 2.77L16.39 2.77 14.72-11.91Q14.66-12.61 14.08-12.61L14.08-12.61Q13.54-12.61 13.4-11.91L13.4-11.91 10.74 2.83Q10.59 3.74 10.15 4.11L10.15 4.11Q9.73 4.46 8.81 4.46L8.81 4.46 3.43 4.46Q1.82 4.46 1.82 3.19L1.82 3.19Q1.82 2.97 1.89 2.59L1.89 2.59 4.37-10.55Q4.44-10.92 4.44-11.21L4.44-11.21Q4.44-11.69 4.11-12.08L4.11-12.08Q3.67-12.61 2.99-12.61L2.99-12.61 2.79-12.61Q1.21-12.61 1.21-14.3L1.21-14.3 1.21-15.12Q1.21-16.81 2.92-16.81L2.92-16.81 4-16.81Q5.54-16.81 5.84-18.37L5.84-18.37 7.05-24.83Q7.14-25.27 7.14-25.51L7.14-25.51Q7.14-26.94 5.32-26.94L5.32-26.94 3.45-26.94Q1.63-26.94 1.63-28.63L1.63-28.63 1.63-29.9Q1.63-31 2.64-31.14L2.64-31.14Q3.38-31.22 3.38-31.88L3.38-31.88Q3.38-31.99 3.34-32.1L3.34-32.1 3.21-32.52Q3.16-32.7 3.16-32.83L3.16-32.83Q3.16-33.9 4.48-33.9L4.48-33.9 9.07-33.9Q10.66-33.9 11.07-32.7L11.07-32.7 11.23-32.26Q11.65-31.14 12.9-31.14L12.9-31.14 13.69-31.14Q15.01-31.14 15.34-32.32L15.34-32.32 15.45-32.65Q15.8-33.9 17.38-33.9L17.38-33.9 21.69-33.9Q23.05-33.9 23.05-32.78L23.05-32.78Q23.05-32.65 23.01-32.52L23.01-32.52 22.92-32.12Q22.87-31.97 22.87-31.77L22.87-31.77Q22.87-31.22 23.55-31.14L23.55-31.14Q24.41-31.03 24.41-30.06L24.41-30.06 24.41-28.63Q24.41-26.94 22.59-26.94L22.59-26.94 17.69-26.94Q16.11-26.94 15.82-25.38L15.82-25.38 14.66-18.9Q14.59-18.48 14.59-18.24L14.59-18.24Q14.59-16.81 16.41-16.81L16.41-16.81 23.51-16.81Q24.76-16.81 25.2-15.97ZM48.65-17.82L48.65-17.82 48.38-17.93Q47.29-18.44 47.29-20.02L47.29-20.02 47.29-23.69Q47.29-24.7 48.08-24.7L48.08-24.7Q48.21-24.7 48.45-24.63L48.45-24.63Q48.69-24.54 48.85-24.54L48.85-24.54Q49.61-24.54 49.61-25.55L49.61-25.55 49.61-31.18Q49.61-33 51.46-33L51.46-33 57.68-33Q59.52-33 59.52-31.18L59.52-31.18 59.52 2.68Q59.52 4.5 57.68 4.5L57.68 4.5 51.46 4.5Q49.61 4.5 49.61 2.68L49.61 2.68 49.61-16.08Q49.61-17.38 48.65-17.82ZM76.4-17.62L76.4-17.62 75.7-17.93Q74.44-18.44 74.44-20.02L74.44-20.02 74.44-23.23Q74.44-24.61 75.52-24.61L75.52-24.61Q75.67-24.61 76-24.52L76-24.52Q76.29-24.43 76.51-24.43L76.51-24.43Q77.54-24.43 77.54-25.8L77.54-25.8 77.54-31.18Q77.54-33 79.37-33L79.37-33 85.61-33Q87.45-33 87.45-31.18L87.45-31.18 87.45 2.68Q87.45 4.5 85.61 4.5L85.61 4.5 79.37 4.5Q77.54 4.5 77.54 2.68L77.54 2.68 77.54-15.82Q77.54-17.16 76.4-17.62ZM62.71-17.49L62.71-17.49 61.79-17.86Q60.49-18.37 60.49-19.95L60.49-19.95 60.49-23.16Q60.49-24.54 61.59-24.54L61.59-24.54Q61.85-24.54 62.09-24.46L62.09-24.46 62.2-24.41Q62.42-24.32 62.67-24.32L62.67-24.32Q63.92-24.32 63.92-25.84L63.92-25.84 63.92-31.18Q63.92-33 65.74-33L65.74-33 71.7-33Q73.52-33 73.52-31.18L73.52-31.18 73.52 2.68Q73.52 4.5 71.7 4.5L71.7 4.5 65.74 4.5Q63.92 4.5 63.92 2.68L63.92 2.68 63.92-15.67Q63.92-16.46 63.65-16.83L63.65-16.83Q63.39-17.2 62.71-17.49ZM131.35-11.03L130.69-11.03 131.73-9.47Q131.99-9.07 131.99-8.77L131.99-8.77Q131.99-7.84 130.85-7.84L130.85-7.84 124.98-7.84Q123.99-7.84 123.51-8.11L123.51-8.11Q123.05-8.37 122.63-9.03L122.63-9.03 122.01-10.02Q121.64-10.63 121.31-10.83L121.31-10.83Q120.96-11.03 120.23-11.03L120.23-11.03 105.42-11.03Q104.7-11.03 104.37-10.85L104.37-10.85Q104.02-10.66 103.65-10.06L103.65-10.06 102.99-9.03Q102.57-8.37 102.08-8.11L102.08-8.11Q101.6-7.84 100.59-7.84L100.59-7.84 94.75-7.84Q93.6-7.84 93.6-8.79L93.6-8.79Q93.6-9.03 93.89-9.45L93.89-9.45 94.99-11.03 94.02-11.03Q92.18-11.03 92.18-12.63L92.18-12.63 92.18-13.03Q92.18-14.63 94.02-14.63L94.02-14.63 97.16-14.63Q98.17-14.63 98.17-15.47L98.17-15.47Q98.17-16.3 97.16-16.3L97.16-16.3 94.26-16.3Q92.42-16.3 92.42-17.86L92.42-17.86 92.42-18.06Q92.42-19.6 94.26-19.6L94.26-19.6 97.27-19.6Q98.2-19.6 98.2-20.35L98.2-20.35Q98.2-21.09 97.27-21.09L97.27-21.09 94.13-21.09Q92.29-21.09 92.29-22.63L92.29-22.63 92.29-22.83Q92.29-24.39 94.13-24.39L94.13-24.39 97.36-24.39Q98.11-24.39 98.2-25.07L98.2-25.07Q98.26-25.75 99.01-25.75L99.01-25.75 106.66-25.75Q107.4-25.75 107.49-25.07L107.49-25.07Q107.56-24.39 108.3-24.39L108.3-24.39 117.62-24.39Q118.37-24.39 118.45-25.07L118.45-25.07Q118.52-25.75 119.27-25.75L119.27-25.75 126.91-25.75Q127.68-25.75 127.75-25.07L127.75-25.07Q127.84-24.39 128.58-24.39L128.58-24.39 130.96-24.39Q132.8-24.39 132.8-22.83L132.8-22.83 132.8-22.63Q132.8-21.09 130.96-21.09L130.96-21.09 128.67-21.09Q127.75-21.09 127.75-20.35L127.75-20.35Q127.75-19.6 128.67-19.6L128.67-19.6 130.8-19.6Q132.63-19.6 132.63-18.06L132.63-18.06 132.63-17.86Q132.63-16.3 130.8-16.3L130.8-16.3 128.76-16.3Q127.75-16.3 127.75-15.47L127.75-15.47Q127.75-14.63 128.76-14.63L128.76-14.63 131.35-14.63Q133.2-14.63 133.2-13.03L133.2-13.03 133.2-12.63Q133.2-11.03 131.35-11.03L131.35-11.03ZM108.41-19.6L108.41-19.6 117.53-19.6Q118.45-19.6 118.45-20.35L118.45-20.35Q118.45-21.09 117.53-21.09L117.53-21.09 108.41-21.09Q107.49-21.09 107.49-20.35L107.49-20.35Q107.49-19.6 108.41-19.6ZM108.5-14.63L108.5-14.63 117.44-14.63Q118.45-14.63 118.45-15.47L118.45-15.47Q118.45-16.3 117.44-16.3L117.44-16.3 108.5-16.3Q107.49-16.3 107.49-15.47L107.49-15.47Q107.49-14.63 108.5-14.63ZM108.24-33.9L108.24-33.9 116.96-33.9Q117.88-33.9 117.99-33.05L117.99-33.05Q118.1-32.19 119.03-32.19L119.03-32.19 131.11-32.19Q132.93-32.19 132.93-30.37L132.93-30.37 132.93-28.23Q132.93-26.39 131.11-26.39L131.11-26.39 125.11-26.39Q124.06-26.39 123.95-27.33L123.95-27.33Q123.84-28.3 122.78-28.3L122.78-28.3 102.35-28.3Q101.29-28.3 101.18-27.36L101.18-27.36Q101.1-26.39 100.04-26.39L100.04-26.39 94.02-26.39Q92.2-26.39 92.2-28.23L92.2-28.23 92.2-30.37Q92.2-32.19 94.02-32.19L94.02-32.19 106.15-32.19Q107.09-32.19 107.2-33.05L107.2-33.05Q107.29-33.9 108.24-33.9ZM107.36-0.88L107.36-0.88 107.36-1.54Q107.36-3.21 105.53-3.21L105.53-3.21 94.46-3.21Q92.64-3.21 92.64-4.81L92.64-4.81 92.64-5.21Q92.64-6.81 94.46-6.81L94.46-6.81 106.06-6.81Q107.25-6.81 107.36-7.87L107.36-7.87Q107.49-8.92 108.65-8.92L108.65-8.92 116.56-8.92Q117.75-8.92 117.86-7.87L117.86-7.87Q117.99-6.81 119.16-6.81L119.16-6.81 131.13-6.81Q132.98-6.81 132.98-5.21L132.98-5.21 132.98-4.81Q132.98-3.21 131.13-3.21L131.13-3.21 119.71-3.21Q117.86-3.21 117.86-1.54L117.86-1.54 117.86-0.88Q117.86 0.79 119.71 0.79L119.71 0.79 132.01 0.79Q133.86 0.79 133.86 2.4L133.86 2.4 133.86 2.79Q133.86 4.39 132.01 4.39L132.01 4.39 93.01 4.39Q91.19 4.39 91.19 2.79L91.19 2.79 91.19 2.4Q91.19 0.79 93.01 0.79L93.01 0.79 105.53 0.79Q107.36 0.79 107.36-0.88ZM155.04-1.87L155.04-1.87 152.29-18.15Q152.27-18.41 152.27-18.72L152.27-18.72Q152.27-20.02 153.87-20.02L153.87-20.02 158.53-20.02Q160.16-20.02 160.44-18.41L160.44-18.41 164.22 2.55Q164.29 2.83 164.29 3.14L164.29 3.14Q164.29 4.42 162.69 4.42L162.69 4.42 142.08 4.42Q140.25 4.42 140.25 2.59L140.25 2.59 140.25-26.7Q140.25-28.52 138.6-28.52L138.6-28.52 138.1-28.52Q136.47-28.52 136.47-30.28L136.47-30.28 136.47-31.27Q136.47-33.02 138.3-33.02L138.3-33.02 176.68-33.02Q178.53-33.02 178.53-31.27L178.53-31.27 178.53-30.28Q178.53-28.52 176.68-28.52L176.68-28.52 152.05-28.52Q150.45-28.52 150.45-27.2L150.45-27.2Q150.45-25.91 152.05-25.91L152.05-25.91 173.74-25.91Q175.58-25.91 175.58-24.08L175.58-24.08 175.58-1.63Q175.58 0.22 177.12 0.22L177.12 0.22 177.3 0.22Q178.84 0.22 178.84 1.91L178.84 1.91 178.84 2.72Q178.84 4.42 176.99 4.42L176.99 4.42 167.5 4.42Q165.67 4.42 165.67 2.59L165.67 2.59 165.67-19.89Q165.67-21.71 163.83-21.71L163.83-21.71 152.27-21.71Q150.45-21.71 150.45-19.89L150.45-19.89 150.45-1.63Q150.45 0.22 152.27 0.22L152.27 0.22 153.39 0.22Q155.1 0.22 155.1-1.23L155.1-1.23Q155.1-1.58 155.04-1.87Z" transform="translate(-1.2100000381469727, 33.900001525878906)"></path></g> <!----> <!----> <!----> <!----> <!----> <!----> <!----></g></g> <g data-gra="path-slogan" fill-rule="" class="tp-slogan iconsvg-slogansvg" fill="#333" transform="translate(30.264995574951172,44.400001525878906)"><!----> <!----> <g transform="scale(1, 1)"><g transform="scale(1)"><path d="M1.73-1.03L7.03-1.03L7.03 0L0.28 0L0.28-0.94L5.53-7.59L0.66-7.59L0.66-8.58L7.03-8.58L7.03-7.59L1.73-1.03ZM9.33-5.06L13.83-5.06L13.83-8.58L15-8.58L15 0L13.83 0L13.83-3.98L9.33-3.98L9.33 0L8.16 0L8.16-8.58L9.33-8.58L9.33-5.06ZM18.09-1.03L23.25-1.03L23.25 0L16.92 0L16.92-8.58L23.16-8.58L23.16-7.59L18.09-7.59L18.09-4.92L22.78-4.92L22.78-3.89L18.09-3.89L18.09-1.03ZM26.16-8.58L30.47-1.64L30.47-8.58L31.59-8.58L31.59 0L30.28 0L25.92-6.94L25.88-6.94L25.88 0L24.75 0L24.75-8.58L26.16-8.58ZM39.80-3.61L37.17-3.61L37.17-4.59L40.92-4.59L40.92 0L40.17 0L39.89-1.08Q38.91 0.09 37.08 0.14L37.08 0.14Q35.34 0.14 34.41-0.75L34.41-0.75Q33-2.06 33.05-4.36L33.05-4.36Q33.38-8.63 37.13-8.81L37.13-8.81Q40.31-8.63 40.78-6L40.78-6L39.66-6Q39.19-7.78 37.08-7.83L37.08-7.83Q34.41-7.64 34.27-4.31L34.27-4.31Q34.27-0.75 37.13-0.75L37.13-0.75Q38.16-0.75 38.91-1.31L38.91-1.31Q39.84-2.06 39.80-3.61L39.80-3.61ZM43.55-1.03L48.84-1.03L48.84 0L42.09 0L42.09-0.94L47.34-7.59L42.47-7.59L42.47-8.58L48.84-8.58L48.84-7.59L43.55-1.03ZM51.14-5.06L55.64-5.06L55.64-8.58L56.81-8.58L56.81 0L55.64 0L55.64-3.98L51.14-3.98L51.14 0L49.97 0L49.97-8.58L51.14-8.58L51.14-5.06ZM65.39-4.27L65.39-4.27Q65.20-7.64 62.39-7.83L62.39-7.83Q59.53-7.69 59.39-4.27L59.39-4.27Q59.53-0.94 62.39-0.80L62.39-0.80Q65.20-0.98 65.39-4.27ZM66.56-4.27L66.56-4.27Q66.28 0 62.39 0.14L62.39 0.14Q58.45 0 58.17-4.27L58.17-4.27Q58.41-8.72 62.39-8.81L62.39-8.81Q66.28-8.67 66.56-4.27ZM73.59-3.19L73.59-8.58L74.77-8.58L74.77-3.05Q74.63 0.05 71.25 0.14L71.25 0.14Q68.11 0.05 67.97-2.86L67.97-2.86L67.97-8.58L69.14-8.58L69.14-3.19Q69.19-0.84 71.30-0.80L71.30-0.80Q73.59-0.84 73.59-3.19L73.59-3.19ZM86.16-6.09L86.16-6.09L85.08-6.09Q84.98-7.73 82.92-7.83L82.92-7.83Q81-7.78 81-6.33L81-6.33Q81-5.39 82.03-5.25L82.03-5.25L84.47-4.69Q86.39-4.22 86.39-2.34L86.39-2.34Q86.34 0.05 83.02 0.14L83.02 0.14Q81.19 0.14 80.44-0.61L80.44-0.61Q79.50-1.31 79.55-2.77L79.55-2.77L80.67-2.77Q80.72-0.80 83.02-0.75L83.02-0.75Q85.27-0.80 85.31-2.20L85.31-2.20Q85.50-3.38 83.44-3.75L83.44-3.75L81.66-4.13Q79.83-4.64 79.83-6.19L79.83-6.19Q79.97-8.72 82.83-8.81L82.83-8.81Q86.06-8.81 86.16-6.09ZM93.52 0L92.67-2.48L89.20-2.48L88.31 0L87.14 0L90.38-8.58L91.69-8.58L94.78 0L93.52 0ZM90.94-7.31L89.58-3.52L92.25-3.52L90.98-7.31L90.94-7.31ZM96-8.58L97.17-8.58L97.17 0L96 0L96-8.58ZM103.92-7.13L103.88-7.13L101.91 0L100.69 0L98.44-8.58L99.66-8.58L101.30-1.59L101.34-1.59L103.27-8.58L104.53-8.58L106.45-1.59L106.50-1.59L108.09-8.58L109.36-8.58L107.11 0L105.89 0L103.92-7.13ZM116.11 0L115.27-2.48L111.80-2.48L110.91 0L109.73 0L112.97-8.58L114.28-8.58L117.38 0L116.11 0ZM113.53-7.31L112.17-3.52L114.84-3.52L113.58-7.31L113.53-7.31Z" transform="translate(-0.28125, 8.8125)"></path></g></g></g></g></g><defs v-gra="od"></defs></svg>